<svg width="33" height="33" viewBox="0 0 33 33" fill="none" xmlns="http://www.w3.org/2000/svg">
<g opacity="0.9">
<g filter="url(#filter0_d_696_1176)">
<circle cx="16.5" cy="16.5" r="12.5" fill="#212121"/>
<circle cx="16.5" cy="16.5" r="12" stroke="#E8E4E4"/>
</g>
<path d="M22.4444 17.1658C22.4444 19.7228 22.4444 21.0012 21.7382 21.8617C21.609 22.0192 21.4645 22.1637 21.307 22.2929C20.4465 22.9991 19.168 22.9992 16.611 22.9992H16.2222C13.289 22.9992 11.8225 22.9992 10.9112 22.0879C10 21.1767 10 19.7101 10 16.7769V16.388C10 13.8311 10 12.5526 10.7062 11.6921C10.8355 11.5346 10.9799 11.3902 11.1375 11.2609C11.998 10.5547 13.2764 10.5547 15.8333 10.5547" fill="#212121"/>
<path d="M22.4444 17.1658C22.4444 19.7228 22.4444 21.0012 21.7382 21.8617C21.609 22.0192 21.4645 22.1637 21.307 22.2929C20.4465 22.9991 19.168 22.9992 16.611 22.9992H16.2222C13.289 22.9992 11.8225 22.9991 10.9112 22.0879C10 21.1767 10 19.7101 10 16.7769V16.388C10 13.8311 10 12.5526 10.7062 11.6921C10.8355 11.5346 10.9799 11.3902 11.1375 11.2609C11.998 10.5547 13.2764 10.5547 15.8333 10.5547" stroke="#E8E4E4" stroke-width="1.5" stroke-linecap="round" stroke-linejoin="round"/>
<path d="M20.4414 10.2484L21.2114 9.47841C21.8493 8.84053 22.8835 8.84053 23.5214 9.47841C24.1592 10.1163 24.1592 11.1505 23.5214 11.7884L22.7514 12.5584M20.4414 10.2484L15.2619 15.4279C14.8672 15.8227 14.5871 16.3172 14.4518 16.8588L13.8887 19.1111L16.141 18.548C16.6826 18.4127 17.1771 18.1326 17.5719 17.7379L22.7514 12.5584M20.4414 10.2484L22.7514 12.5584L20.4414 10.2484Z" fill="#212121"/>
<path d="M20.4414 10.2484L21.2114 9.47841C21.8493 8.84053 22.8835 8.84053 23.5214 9.47841C24.1592 10.1163 24.1592 11.1505 23.5214 11.7884L22.7514 12.5584M20.4414 10.2484L15.2619 15.4279C14.8672 15.8227 14.5871 16.3172 14.4518 16.8588L13.8887 19.1111L16.141 18.548C16.6826 18.4127 17.1771 18.1326 17.5719 17.7379L22.7514 12.5584M20.4414 10.2484L22.7514 12.5584" stroke="#E8E4E4" stroke-width="1.5" stroke-linejoin="round"/>
</g>
<defs>
<filter id="filter0_d_696_1176" x="0" y="0" width="33" height="33" filterUnits="userSpaceOnUse" color-interpolation-filters="sRGB">
<feFlood flood-opacity="0" result="BackgroundImageFix"/>
<feColorMatrix in="SourceAlpha" type="matrix" values="0 0 0 0 0 0 0 0 0 0 0 0 0 0 0 0 0 0 127 0" result="hardAlpha"/>
<feOffset/>
<feGaussianBlur stdDeviation="2"/>
<feComposite in2="hardAlpha" operator="out"/>
<feColorMatrix type="matrix" values="0 0 0 0 0 0 0 0 0 0 0 0 0 0 0 0 0 0 0.25 0"/>
<feBlend mode="normal" in2="BackgroundImageFix" result="effect1_dropShadow_696_1176"/>
<feBlend mode="normal" in="SourceGraphic" in2="effect1_dropShadow_696_1176" result="shape"/>
</filter>
</defs>
</svg>
